<?xml version="1.0" encoding="utf-8"?>
<!-- Generator: Adobe Illustrator 17.0.0, SVG Export Plug-In . SVG Version: 6.00 Build 0)  -->
<!DOCTYPE svg PUBLIC "-//W3C//DTD SVG 1.1//EN" "http://www.w3.org/Graphics/SVG/1.1/DTD/svg11.dtd">
<svg version="1.1" id="图层_1" xmlns="http://www.w3.org/2000/svg" xmlns:xlink="http://www.w3.org/1999/xlink" x="0px" y="0px"
	 width="311.811px" height="311.811px" viewBox="0 0 311.811 311.811" enable-background="new 0 0 311.811 311.811"
	 xml:space="preserve">
<g>
	<g>
		<path fill="#65AADD" d="M190.009,53.293c-6.143,0-8.883-0.63-9.588-0.924l-0.003-0.001c-0.585-0.247-1.132-0.563-1.633-0.937
			c-0.3-0.225-0.584-0.47-0.849-0.735c-0.265-0.265-0.51-0.548-0.735-0.849c-0.374-0.501-0.69-1.048-0.937-1.631l-0.001-0.003
			c-0.294-0.706-0.924-3.446-0.924-9.589c0-0.352-0.286-0.638-0.638-0.638c-0.352,0-0.638,0.286-0.638,0.638
			c0,6.143-0.63,8.883-0.924,9.588l-0.001,0.003c-0.247,0.585-0.563,1.132-0.937,1.633c-0.225,0.3-0.47,0.584-0.735,0.849
			c-0.265,0.265-0.548,0.511-0.849,0.735c-0.501,0.374-1.048,0.69-1.631,0.937l-0.003,0.001c-0.706,0.294-3.446,0.924-9.589,0.924
			c-0.352,0-0.638,0.286-0.638,0.638c0,0.352,0.286,0.638,0.638,0.638c6.143,0,8.883,0.63,9.587,0.924l0.003,0.001
			c0.585,0.247,1.132,0.563,1.633,0.937c0.3,0.225,0.584,0.47,0.849,0.735c0.265,0.265,0.511,0.548,0.735,0.849
			c0.374,0.501,0.69,1.048,0.937,1.631l0.002,0.004c0.294,0.704,0.924,3.444,0.924,9.588c0,0.352,0.286,0.638,0.638,0.638
			c0.352,0,0.638-0.286,0.638-0.638c0-6.143,0.63-8.883,0.924-9.587l0.001-0.003c0.247-0.585,0.563-1.132,0.937-1.633
			c0.225-0.3,0.47-0.584,0.735-0.849c0.265-0.265,0.548-0.511,0.849-0.735c0.501-0.374,1.048-0.69,1.631-0.937l0.004-0.002
			c0.704-0.294,3.444-0.924,9.588-0.924c0.352,0,0.638-0.286,0.638-0.638C190.647,53.579,190.361,53.293,190.009,53.293z"/>
		<g>
			<path opacity="0" fill="#65AADD" d="M165.637,269.935c-16.692-29.146-23.07-63.43-17.958-96.538
				c0.185-1.199,0.391-2.395,0.604-3.57c0.231-1.203-0.018-2.323-0.703-3.152c-0.711-0.86-1.805-1.334-3.081-1.334
				c-2.861,0-6.172,2.448-6.965,7.132c-3.575,21.63-2.383,44.195,3.447,65.256c3.248,11.732,8.165,23.391,14.614,34.652
				c0.549,0.958,1.631,1.444,3.217,1.444h0c1.926,0,6.031-0.945,6.812-2.292C165.916,271.028,165.921,270.431,165.637,269.935z"/>
			<path fill="#65AADD" d="M242.746,64.675c-2.115-2.41-5.626-3.632-10.435-3.632c-6.647,0-14.256,2.355-18.512,4.543
				c-11.624,5.977-22.554,13.972-32.486,23.761c-14.465,14.259-26.252,31.833-34.086,50.824l-0.061,0.143
				c-1.962,4.771-3.699,9.737-5.166,14.768c-8.112,3.771-16.195,6.867-24.032,9.205c-7.024,2.096-15.25,4.238-23.001,4.239
				c-7.567,0-13.149-2.144-16.592-6.373c-2.191-2.692-2.959-6.115-2.282-10.174c0.908-5.444,4.26-11.854,10.247-19.596
				c0.559-0.724,1.139-1.434,1.708-2.13c2.57-3.046,3.145-5.332,1.708-6.794c-0.572-0.583-1.301-0.891-2.108-0.891
				c-1.972,0-4.392,1.787-7.39,5.452c-3.775,4.477-6.938,9.059-9.404,13.619c-2.926,5.413-4.323,10.919-3.932,15.505
				c0.437,5.12,2.962,9.037,7.505,11.643c5.565,3.191,12.366,3.6,17.67,3.6l0.519-0.001c7.432-0.041,15.47-1.216,25.295-3.698
				c7.973-2.014,15.929-4.742,24.323-8.339c2.653-1.137,5.422-2.399,8.23-3.751c8.786-4.233,17.916-9.342,27.91-15.618
				c18.764-11.781,34.039-23.708,46.697-36.463c8.729-8.796,18.172-19.179,19.732-31.106
				C245.286,69.719,244.594,66.78,242.746,64.675z M222.795,96.591c-13.271,15.597-29.999,27.799-43.088,36.687
				c-9.401,6.383-18.174,11.736-26.742,16.314c1.575-4.691,3.415-9.364,5.481-13.923c6.744-14.877,15.838-28.479,27.03-40.425
				c2.585-2.759,5.252-5.403,7.926-7.858c2.476-2.273,24.522-22.208,35.983-22.208c2.854,0,4.691,1.308,5.616,3.998
				C238.203,78.483,228.56,89.816,222.795,96.591z"/>
			<path fill="#65AADD" d="M165.11,80.164c-0.535-1.137-2.167-1.713-4.853-1.713c-1.041,0-1.97,0.09-2.565,0.166
				c-7.829,0.997-15.501,4.935-22.271,8.409l-0.676,0.347c-9.269,4.752-18.815,10.731-28.375,17.769
				c-4.988,3.672-9.337,7.152-13.291,10.633c-1.442-0.006-2.723-0.168-3.91-0.496c-1.543-0.426-2.573-1.243-3.062-2.427
				c-1.211-2.935,1.04-7.272,1.758-8.531c6.303-11.043,18.216-19.217,29.879-26.642c13.977-8.898,26.872-14.71,39.423-17.769
				c0.021-0.005,2.061-0.565,2.089-1.555c0.008-0.294-0.141-0.693-0.9-0.924c-0.543-0.166-1.157-0.25-1.824-0.25
				c-1.242,0-2.496,0.281-3.574,0.543c-23.579,5.747-43.503,18.762-56.065,28.668c-7.413,5.845-14.787,12.375-18.519,20.507
				c-1.327,2.892-1.403,5.502-0.221,7.551c1.396,2.419,4.443,3.965,8.579,4.352c1.06,0.099,2.145,0.147,3.319,0.147
				c0.276,0,0.551-0.002,0.828-0.008c2.466-0.047,5.083-0.321,7.78-0.814c5.294-0.966,10.507-2.659,14.909-4.188
				c9.264-3.217,19.017-7.944,29.814-14.452c7.093-4.275,15.133-9.121,20.573-15.689C165.167,82.334,165.556,81.111,165.11,80.164z
				 M156.134,83.317l-0.202,0.258c-2.157,2.836-5.201,5.074-8.145,7.238l-0.708,0.521c-11.828,8.728-25.411,15.972-39.282,20.949
				c-1.25,0.449-2.61,0.937-4.021,1.401c7.583-6.44,16.458-12.713,27.053-19.126l0.302-0.183
				c7.879-4.769,16.789-10.161,25.865-12.517C156.926,82.319,156.458,82.909,156.134,83.317z"/>
		</g>
	</g>
	<g>
		<path fill="#65AADD" d="M148.461,257.408c-1.101-2.761-2.339-6.126-3.621-10.059c-0.638-1.951-1.273-4.076-1.877-6.286
			c-0.297-1.118-0.601-2.266-0.912-3.44c-0.28-1.18-0.567-2.387-0.86-3.62c-0.764-3.411-1.446-7.056-2.031-10.871
			c0.912,4.889,2.036,9.495,3.276,13.709c1.378,4.752,2.947,9.013,4.469,12.721c1.521,3.712,2.997,6.88,4.268,9.458
			c1.264,2.583,2.369,4.551,3.114,5.897c0.761,1.336,1.167,2.049,1.167,2.049s-1.482-2.932-3.75-8.19
			c-2.278-5.25-5.19-12.915-7.606-22.388c-1.197-4.736-2.253-9.926-3.074-15.459c-0.165-1.127-0.31-2.276-0.452-3.428
			c0.225,1.377,0.461,2.753,0.723,4.1c0.594,3.081,1.31,6.135,2.104,9.116l0.295,1.103l0.154,0.572l0.158,0.545
			c0.21,0.726,0.418,1.449,0.626,2.167c0.223,0.721,0.445,1.438,0.665,2.149c0.211,0.703,0.459,1.434,0.682,2.108
			c0.914,2.786,1.875,5.414,2.86,7.921c0.967,2.501,1.967,4.805,2.916,6.949c0.963,2.117,1.875,4.05,2.733,5.738
			c0.843,1.69,1.623,3.146,2.276,4.337c0.65,1.19,1.18,2.117,1.549,2.742c0.364,0.628,0.559,0.964,0.559,0.964
			s-0.174-0.346-0.499-0.996c-0.332-0.648-0.802-1.6-1.379-2.828c-0.578-1.224-1.265-2.716-2.004-4.453
			c-0.75-1.727-1.539-3.7-2.371-5.869c-0.804-2.159-1.667-4.534-2.47-7.055c-0.814-2.503-1.62-5.207-2.35-7.992
			c-0.19-0.719-0.373-1.386-0.544-2.108c-0.173-0.71-0.348-1.425-0.524-2.144c-0.164-0.729-0.328-1.463-0.494-2.201l-0.124-0.554
			l-0.109-0.535l-0.228-1.119c-0.598-2.956-1.117-5.977-1.514-9.013c-0.141-1.069-0.249-2.117-0.363-3.169
			c0.305,1.906,0.629,3.789,0.991,5.62c1.093,5.561,2.473,10.753,3.963,15.472c1.473,4.716,3.094,8.951,4.662,12.643
			c1.568,3.697,3.069,6.845,4.371,9.411c1.291,2.567,2.419,4.525,3.18,5.861c0.776,1.327,1.19,2.035,1.19,2.035
			s-0.364-0.734-1.047-2.111c-0.679-1.378-1.626-3.422-2.799-6.035c-2.342-5.226-5.309-12.854-7.914-22.293
			c-1.077-3.926-2.059-8.183-2.912-12.683c0.104,0.46,0.208,0.92,0.31,1.375c0.156,0.692,0.311,1.38,0.465,2.061
			c0.188,0.791,0.371,1.375,0.555,2.063c0.367,1.325,0.728,2.628,1.082,3.907c0.408,1.369,0.807,2.531,1.198,3.769
			c0.196,0.607,0.389,1.208,0.581,1.802c0.105,0.315,0.171,0.552,0.306,0.927l0.319,0.864c0.425,1.144,0.841,2.262,1.246,3.351
			c0.211,0.555,0.419,1.104,0.625,1.645c0.222,0.521,0.44,1.035,0.656,1.542c0.431,1.013,0.849,1.998,1.255,2.952
			c0.213,0.487,0.38,0.923,0.621,1.431c0.215,0.453,0.427,0.898,0.635,1.335c0.419,0.873,0.823,1.715,1.211,2.523
			c0.195,0.404,0.387,0.799,0.574,1.187l0.14,0.289c0.063,0.136,0.104,0.199,0.156,0.301c0.099,0.185,0.198,0.369,0.295,0.55
			c0.389,0.724,0.76,1.415,1.112,2.071c1.361,2.646,2.638,4.641,3.448,6.002c0.824,1.366,1.264,2.094,1.264,2.094
			c-16.692-29.146-23.07-63.43-17.958-96.538c0.185-1.199,0.391-2.395,0.604-3.57c0.231-1.203-0.018-2.323-0.703-3.152
			c-0.711-0.86-1.805-1.334-3.081-1.334c-2.861,0-6.172,2.448-6.965,7.132c-3.575,21.63-2.383,44.195,3.447,65.256
			c2.609,9.425,6.313,18.799,11.006,27.961c-0.159-0.354-0.45-0.998-0.862-1.912C150.485,262.311,149.569,260.176,148.461,257.408z"
			/>
	</g>
</g>
</svg>
