<?xml version="1.0" encoding="utf-8"?>
<!-- Generator: Adobe Illustrator 17.0.0, SVG Export Plug-In . SVG Version: 6.00 Build 0)  -->
<!DOCTYPE svg PUBLIC "-//W3C//DTD SVG 1.1//EN" "http://www.w3.org/Graphics/SVG/1.1/DTD/svg11.dtd">
<svg version="1.1" id="图层_1" xmlns="http://www.w3.org/2000/svg" xmlns:xlink="http://www.w3.org/1999/xlink" x="0px" y="0px"
	 width="708.661px" height="283.465px" viewBox="0 0 708.661 283.465" enable-background="new 0 0 708.661 283.465"
	 xml:space="preserve">
<g>
	<g>
		<circle fill="#005D97" cx="138.655" cy="142.06" r="29.764"/>
		<path fill="#005D97" d="M138.655,176.076c0,0,0.624-0.051,1.795-0.147c0.582-0.069,1.314-0.059,2.148-0.225
			c0.832-0.15,1.788-0.323,2.859-0.516c1.047-0.305,2.216-0.6,3.46-1.002c0.609-0.239,1.243-0.489,1.901-0.747
			c0.327-0.132,0.665-0.254,0.999-0.4c0.325-0.167,0.656-0.336,0.992-0.508c2.732-1.28,5.557-3.238,8.268-5.732
			c2.696-2.511,5.207-5.691,7.091-9.457c1.891-3.758,3.113-8.09,3.46-12.645c0.026-0.571,0.052-1.144,0.078-1.719l0.04-0.864
			l-0.042-0.843c-0.033-0.595-0.066-1.192-0.099-1.792l-0.055-0.898l-0.138-0.856c-0.201-1.142-0.304-2.297-0.661-3.441
			l-0.452-1.726c-0.143-0.579-0.399-1.124-0.593-1.689c-1.64-4.494-4.308-8.684-7.74-12.12c-3.439-3.428-7.626-6.099-12.121-7.739
			c-4.503-1.653-9.247-2.263-13.853-1.92c-4.524,0.347-8.86,1.57-12.618,3.459c-3.765,1.883-6.945,4.394-9.456,7.089
			c-2.494,2.71-4.451,5.536-5.731,8.267c-0.172,0.336-0.341,0.667-0.508,0.992c-0.146,0.334-0.268,0.672-0.4,0.999
			c-0.259,0.657-0.508,1.291-0.748,1.9c-0.402,1.244-0.697,2.414-1.002,3.46c-0.193,1.073-0.366,2.031-0.517,2.865
			c-0.166,0.834-0.155,1.561-0.225,2.143c-0.096,1.17-0.148,1.794-0.148,1.794s0.012-0.626,0.034-1.8
			c0.033-0.586-0.023-1.319,0.089-2.166c0.106-0.849,0.229-1.825,0.366-2.917c0.257-1.07,0.501-2.27,0.85-3.555
			c0.214-0.631,0.437-1.288,0.669-1.969c0.119-0.34,0.228-0.691,0.361-1.039c0.154-0.34,0.31-0.686,0.469-1.037
			c1.172-2.858,3.043-5.866,5.565-8.731c2.518-2.864,5.745-5.572,9.626-7.655c3.867-2.086,8.39-3.545,13.232-3.919
			c4.746-0.401,9.843,0.187,14.61,1.895c4.778,1.694,9.256,4.48,12.94,8.099c3.616,3.686,6.404,8.161,8.097,12.94
			c0.201,0.601,0.462,1.182,0.61,1.796l0.463,1.832c0.359,1.199,0.474,2.478,0.672,3.717l0.135,0.932l0.046,0.902
			c0.027,0.6,0.055,1.197,0.082,1.793c0.012,0.319,0.032,0.547,0.036,0.939l-0.049,0.912c-0.033,0.606-0.067,1.21-0.1,1.812
			c-0.374,4.811-1.835,9.336-3.919,13.205c-2.083,3.881-4.79,7.108-7.653,9.626c-2.865,2.521-5.874,4.391-8.731,5.564
			c-0.351,0.159-0.697,0.316-1.036,0.469c-0.348,0.133-0.7,0.242-1.039,0.361c-0.681,0.231-1.338,0.455-1.969,0.669
			c-1.285,0.349-2.485,0.594-3.554,0.85c-1.095,0.137-2.072,0.26-2.923,0.366c-0.847,0.113-1.574,0.057-2.16,0.089
			C139.282,176.064,138.655,176.076,138.655,176.076z"/>
		<path fill="#005D97" d="M181.175,142.06c0,0-0.053-0.781-0.154-2.245c-0.077-0.729-0.052-1.643-0.245-2.688
			c-0.176-1.045-0.378-2.246-0.605-3.591c-0.368-1.314-0.724-2.785-1.212-4.351c-0.293-0.767-0.597-1.565-0.913-2.394
			c-0.161-0.412-0.31-0.838-0.489-1.26c-0.205-0.411-0.413-0.828-0.624-1.252c-1.571-3.449-3.995-7.029-7.12-10.459
			c-3.141-3.415-7.128-6.606-11.866-9.014c-4.726-2.416-10.194-4.007-15.956-4.448c-0.722-0.034-1.446-0.069-2.174-0.104
			l-1.093-0.053c-0.302,0.004-0.723,0.035-1.08,0.052c-0.744,0.04-1.491,0.079-2.24,0.119c-0.374,0.023-0.752,0.034-1.123,0.066
			l-1.091,0.172c-1.454,0.25-2.93,0.382-4.375,0.829c-0.727,0.189-1.455,0.378-2.186,0.568c-0.733,0.18-1.424,0.501-2.14,0.746
			c-5.694,2.065-11.008,5.432-15.37,9.771c-4.337,4.364-7.705,9.676-9.77,15.37c-2.081,5.699-2.838,11.724-2.393,17.519
			c0.441,5.74,2.033,11.21,4.448,15.937c2.407,4.738,5.598,8.725,9.013,11.866c3.429,3.125,7.01,5.548,10.458,7.119
			c0.424,0.212,0.842,0.42,1.252,0.625c0.422,0.179,0.848,0.328,1.26,0.49c0.828,0.316,1.627,0.621,2.394,0.913
			c1.566,0.488,3.036,0.844,4.35,1.212c1.347,0.227,2.549,0.429,3.595,0.605c1.046,0.193,1.956,0.168,2.684,0.245
			c1.464,0.1,2.245,0.154,2.245,0.154s-0.782-0.025-2.249-0.073c-0.731-0.051-1.646,0.007-2.701-0.148
			c-1.057-0.145-2.272-0.311-3.633-0.498c-1.331-0.334-2.823-0.652-4.418-1.103c-0.783-0.275-1.598-0.561-2.443-0.857
			c-0.421-0.152-0.857-0.292-1.289-0.462c-0.421-0.196-0.849-0.395-1.284-0.597c-3.538-1.494-7.25-3.856-10.79-7
			c-3.535-3.146-6.867-7.167-9.417-11.988c-2.555-4.805-4.316-10.408-4.776-16.375c-0.486-5.895,0.255-12.172,2.376-18.06
			c2.103-5.897,5.554-11.417,10.027-15.955c4.541-4.47,10.058-7.923,15.956-10.026c0.742-0.249,1.458-0.574,2.216-0.758
			c0.755-0.192,1.509-0.384,2.261-0.575c1.485-0.448,3.049-0.589,4.573-0.836l1.145-0.169c0.378-0.031,0.752-0.04,1.127-0.06
			c0.749-0.036,1.496-0.072,2.24-0.107c0.387-0.015,0.709-0.042,1.149-0.047l1.127,0.059c0.75,0.04,1.496,0.08,2.24,0.119
			c5.945,0.46,11.55,2.222,16.356,4.776c4.82,2.55,8.841,5.881,11.987,9.416c3.144,3.54,5.505,7.252,7,10.789
			c0.202,0.435,0.401,0.863,0.597,1.284c0.17,0.431,0.31,0.867,0.462,1.288c0.297,0.845,0.582,1.66,0.857,2.443
			c0.451,1.595,0.77,3.087,1.104,4.418c0.187,1.362,0.353,2.578,0.498,3.636c0.155,1.055,0.097,1.965,0.148,2.697
			C181.15,141.277,181.175,142.06,181.175,142.06z"/>
	</g>
	<g>
		<g>
			<path fill="#005D97" d="M202.124,141.654c0-1.562,0.319-3.056,0.957-4.482c0.638-1.426,1.556-2.686,2.754-3.78
				c1.198-1.094,2.666-1.966,4.404-2.617c1.738-0.651,3.714-0.977,5.928-0.977c2.201,0,4.183,0.329,5.947,0.987
				c1.764,0.658,3.262,1.559,4.492,2.704c1.23,1.146,2.174,2.493,2.832,4.043c0.658,1.549,0.986,3.21,0.986,4.98
				c0,0.221-0.003,0.46-0.01,0.714s-0.023,0.484-0.049,0.693h-21.797c0.247,0.69,0.648,1.322,1.201,1.895
				c0.553,0.573,1.247,1.068,2.08,1.484c0.833,0.417,1.797,0.74,2.891,0.967c1.094,0.228,2.305,0.341,3.633,0.341
				s2.65-0.139,3.965-0.419c1.315-0.28,2.572-0.635,3.77-1.065l1.953,4.414c-0.755,0.352-1.52,0.661-2.295,0.928
				c-0.775,0.267-1.582,0.488-2.422,0.664c-0.84,0.176-1.719,0.309-2.637,0.4s-1.885,0.138-2.9,0.138
				c-2.591,0-4.863-0.314-6.816-0.939s-3.587-1.478-4.902-2.559c-1.315-1.081-2.305-2.35-2.969-3.809
				C202.456,144.902,202.124,143.333,202.124,141.654z M224.292,139.407c-0.208-0.638-0.531-1.233-0.967-1.786
				c-0.436-0.553-0.98-1.035-1.631-1.445c-0.651-0.41-1.406-0.733-2.266-0.967s-1.803-0.352-2.832-0.352
				c-1.094,0-2.09,0.124-2.988,0.371c-0.898,0.247-1.686,0.579-2.363,0.996c-0.677,0.417-1.24,0.898-1.689,1.445
				s-0.778,1.126-0.986,1.738H224.292z"/>
			<path fill="#005D97" d="M243.408,127.064c-0.573,0-1.09-0.081-1.553-0.243c-0.462-0.163-0.856-0.384-1.182-0.664
				c-0.326-0.28-0.576-0.605-0.752-0.977s-0.264-0.766-0.264-1.182c0-0.43,0.088-0.829,0.264-1.201s0.426-0.694,0.752-0.967
				c0.326-0.273,0.719-0.491,1.182-0.654c0.462-0.163,0.98-0.245,1.553-0.245c0.586,0,1.11,0.082,1.572,0.245
				c0.462,0.163,0.856,0.38,1.182,0.654c0.326,0.273,0.576,0.596,0.752,0.967s0.264,0.771,0.264,1.201
				c0,0.417-0.088,0.811-0.264,1.182s-0.426,0.697-0.752,0.977c-0.326,0.28-0.719,0.501-1.182,0.664
				C244.518,126.983,243.994,127.064,243.408,127.064z M240.518,130.208h5.781v23.047h-5.781V130.208z"/>
			<path fill="#005D97" d="M257.014,130.208h5.781v1.953c1.536-0.872,3.005-1.484,4.404-1.836c1.4-0.352,2.77-0.527,4.111-0.527
				c1.758,0,3.385,0.258,4.883,0.772s2.793,1.279,3.887,2.294s1.95,2.283,2.568,3.799c0.618,1.517,0.928,3.271,0.928,5.263v11.328
				h-5.762v-10.391c0-1.263-0.179-2.392-0.537-3.388s-0.872-1.836-1.543-2.52s-1.484-1.204-2.441-1.563
				c-0.957-0.358-2.028-0.538-3.213-0.538c-0.625,0-1.266,0.065-1.924,0.195c-0.658,0.13-1.302,0.316-1.934,0.557
				c-0.632,0.241-1.24,0.54-1.826,0.898c-0.586,0.358-1.12,0.764-1.602,1.22v15.527h-5.781V130.208z"/>
			<path fill="#005D97" d="M295.358,146.185c1.562,0.938,3.281,1.628,5.156,2.07c1.875,0.443,3.796,0.664,5.762,0.664
				c1.328,0,2.435-0.091,3.32-0.273c0.885-0.182,1.595-0.417,2.129-0.703c0.534-0.286,0.911-0.612,1.133-0.977
				c0.221-0.365,0.332-0.736,0.332-1.113c0-0.547-0.238-1.016-0.713-1.406c-0.475-0.391-1.26-0.586-2.354-0.586
				c-0.508,0-1.055,0.033-1.641,0.098c-0.586,0.065-1.201,0.134-1.846,0.206s-1.315,0.139-2.012,0.204
				c-0.697,0.065-1.403,0.098-2.119,0.098c-1.562,0-2.894-0.169-3.994-0.508c-1.1-0.339-1.995-0.801-2.686-1.387
				s-1.191-1.279-1.504-2.079s-0.469-1.664-0.469-2.589c0-1.172,0.273-2.253,0.82-3.242c0.547-0.99,1.328-1.845,2.344-2.568
				s2.243-1.286,3.682-1.69c1.439-0.404,3.044-0.605,4.814-0.605c0.924,0,1.891,0.056,2.9,0.167
				c1.009,0.111,2.002,0.257,2.979,0.439c0.977,0.182,1.914,0.395,2.812,0.635c0.898,0.241,1.693,0.497,2.383,0.771l-1.816,4.492
				c-1.471-0.547-2.939-0.979-4.404-1.298c-1.465-0.319-2.972-0.479-4.521-0.479c-1.081,0-1.995,0.082-2.744,0.245
				c-0.749,0.163-1.357,0.378-1.826,0.645c-0.469,0.267-0.811,0.573-1.025,0.918c-0.215,0.345-0.322,0.706-0.322,1.083
				c0,0.273,0.055,0.521,0.166,0.742s0.293,0.414,0.547,0.577c0.254,0.163,0.586,0.286,0.996,0.371
				c0.41,0.085,0.915,0.126,1.514,0.126c0.547,0,1.126-0.033,1.738-0.098c0.612-0.065,1.25-0.133,1.914-0.204
				c0.664-0.072,1.351-0.141,2.061-0.206c0.71-0.065,1.436-0.098,2.178-0.098c1.38,0,2.588,0.163,3.623,0.488
				c1.035,0.326,1.891,0.781,2.568,1.367c0.677,0.586,1.185,1.276,1.523,2.07c0.339,0.794,0.508,1.66,0.508,2.598
				c0,1.211-0.28,2.337-0.84,3.379c-0.56,1.042-1.393,1.944-2.5,2.706c-1.107,0.762-2.484,1.357-4.131,1.786
				c-1.647,0.43-3.551,0.646-5.713,0.646c-1.328,0-2.611-0.082-3.848-0.245c-1.237-0.163-2.415-0.384-3.535-0.664
				c-1.12-0.28-2.171-0.609-3.154-0.987c-0.983-0.378-1.878-0.781-2.686-1.211L295.358,146.185z"/>
			<path fill="#005D97" d="M332.27,134.544h-5.566v-4.336h5.566v-7.168h5.781v7.168h5.566v4.336h-5.566v18.711h-5.781V134.544z"/>
			<path fill="#005D97" d="M348.777,141.654c0-1.562,0.319-3.056,0.957-4.482c0.638-1.426,1.556-2.686,2.754-3.78
				s2.665-1.966,4.405-2.617c1.737-0.651,3.714-0.977,5.927-0.977c2.201,0,4.182,0.329,5.948,0.987
				c1.763,0.658,3.26,1.559,4.492,2.704c1.229,1.146,2.173,2.493,2.831,4.043c0.658,1.549,0.987,3.21,0.987,4.98
				c0,0.221-0.004,0.46-0.01,0.714c-0.007,0.254-0.022,0.484-0.048,0.693h-21.797c0.247,0.69,0.647,1.322,1.202,1.895
				c0.552,0.573,1.246,1.068,2.079,1.484c0.833,0.417,1.797,0.74,2.891,0.967c1.094,0.228,2.305,0.341,3.633,0.341
				s2.65-0.139,3.965-0.419c1.315-0.28,2.572-0.635,3.77-1.065l1.953,4.414c-0.755,0.352-1.521,0.661-2.296,0.928
				c-0.775,0.267-1.581,0.488-2.422,0.664c-0.839,0.176-1.719,0.309-2.635,0.4c-0.919,0.091-1.885,0.138-2.901,0.138
				c-2.591,0-4.863-0.314-6.816-0.939s-3.587-1.478-4.902-2.559c-1.315-1.081-2.305-2.35-2.969-3.809
				C349.109,144.902,348.777,143.333,348.777,141.654z M370.945,139.407c-0.208-0.638-0.531-1.233-0.966-1.786
				c-0.438-0.553-0.98-1.035-1.632-1.445c-0.651-0.41-1.406-0.733-2.266-0.967s-1.803-0.352-2.832-0.352
				c-1.094,0-2.09,0.124-2.988,0.371c-0.898,0.247-1.686,0.579-2.363,0.996c-0.677,0.417-1.24,0.898-1.69,1.445
				c-0.448,0.547-0.777,1.126-0.986,1.738H370.945z"/>
			<path fill="#005D97" d="M388.461,127.064c-0.573,0-1.091-0.081-1.553-0.243c-0.462-0.163-0.855-0.384-1.181-0.664
				c-0.326-0.28-0.577-0.605-0.751-0.977c-0.177-0.371-0.264-0.766-0.264-1.182c0-0.43,0.087-0.829,0.264-1.201
				c0.174-0.371,0.426-0.694,0.751-0.967c0.326-0.273,0.719-0.491,1.181-0.654c0.462-0.163,0.98-0.245,1.553-0.245
				c0.586,0,1.109,0.082,1.572,0.245c0.462,0.163,0.857,0.38,1.182,0.654c0.326,0.273,0.576,0.596,0.753,0.967
				c0.174,0.371,0.263,0.771,0.263,1.201c0,0.417-0.089,0.811-0.263,1.182c-0.177,0.371-0.427,0.697-0.753,0.977
				c-0.326,0.28-0.72,0.501-1.182,0.664C389.57,126.983,389.047,127.064,388.461,127.064z M385.57,130.208h5.781v23.047h-5.781
				V130.208z"/>
			<path fill="#005D97" d="M402.333,130.208h5.781v1.953c1.536-0.872,3.004-1.484,4.405-1.836c1.398-0.352,2.77-0.527,4.111-0.527
				c1.758,0,3.385,0.258,4.883,0.772s2.793,1.279,3.887,2.294s1.949,2.283,2.568,3.799c0.618,1.517,0.928,3.271,0.928,5.263v11.328
				h-5.762v-10.391c0-1.263-0.18-2.392-0.536-3.388c-0.359-0.996-0.874-1.836-1.544-2.52c-0.671-0.684-1.484-1.204-2.44-1.563
				c-0.958-0.358-2.029-0.538-3.214-0.538c-0.625,0-1.267,0.065-1.924,0.195c-0.658,0.13-1.302,0.316-1.932,0.557
				c-0.633,0.241-1.241,0.54-1.827,0.898c-0.586,0.358-1.12,0.764-1.602,1.22v15.527h-5.781V130.208z"/>
		</g>
		<g>
			<path fill="#005D97" d="M464.095,162.641h-5.781V130.18h5.781v2.168c0.508-0.352,1.107-0.684,1.797-0.996s1.432-0.586,2.227-0.82
				c0.794-0.234,1.615-0.419,2.461-0.557c0.846-0.135,1.693-0.204,2.539-0.204c1.953,0,3.747,0.286,5.381,0.859
				c1.634,0.573,3.037,1.38,4.209,2.422c1.172,1.042,2.087,2.289,2.744,3.741c0.658,1.452,0.986,3.056,0.986,4.814
				c0,1.836-0.345,3.493-1.035,4.97c-0.69,1.479-1.644,2.742-2.861,3.789c-1.217,1.049-2.663,1.857-4.336,2.422
				c-1.673,0.568-3.486,0.85-5.439,0.85c-0.833,0-1.657-0.052-2.471-0.156c-0.814-0.104-1.595-0.247-2.344-0.43
				c-0.749-0.182-1.452-0.4-2.109-0.655c-0.658-0.253-1.24-0.53-1.748-0.829V162.641z M464.095,145.98
				c0.586,0.469,1.204,0.866,1.855,1.191s1.315,0.592,1.992,0.801c0.677,0.208,1.361,0.361,2.051,0.46
				c0.69,0.096,1.361,0.146,2.012,0.146c1.328,0,2.51-0.178,3.545-0.536c1.035-0.358,1.908-0.85,2.617-1.475
				c0.71-0.625,1.253-1.361,1.631-2.207c0.378-0.846,0.566-1.764,0.566-2.754c0-0.924-0.186-1.797-0.557-2.617
				s-0.905-1.539-1.602-2.158c-0.697-0.618-1.536-1.107-2.52-1.466c-0.983-0.357-2.087-0.536-3.311-0.536
				c-0.781,0-1.562,0.076-2.344,0.224c-0.781,0.151-1.533,0.362-2.256,0.635s-1.4,0.605-2.031,0.996s-1.182,0.827-1.65,1.309V145.98
				z"/>
			<path fill="#005D97" d="M493.667,130.18h5.781v3.32c1.276-0.951,2.624-1.771,4.043-2.461c1.419-0.69,2.832-1.217,4.238-1.582
				l1.699,5.293c-2.227,0.221-4.183,0.72-5.869,1.495c-1.686,0.775-3.057,1.865-4.111,3.271v13.711h-5.781V130.18z"/>
			<path fill="#005D97" d="M513.672,141.703c0-1.654,0.335-3.203,1.006-4.648c0.671-1.445,1.628-2.708,2.871-3.789
				c1.244-1.081,2.747-1.934,4.512-2.559c1.764-0.625,3.747-0.938,5.947-0.938c2.201,0,4.183,0.312,5.947,0.938
				c1.764,0.625,3.268,1.478,4.511,2.559c1.243,1.081,2.201,2.344,2.872,3.789c0.669,1.445,1.005,2.995,1.005,4.648
				c0,1.654-0.336,3.203-1.005,4.648c-0.672,1.445-1.629,2.708-2.872,3.789c-1.243,1.081-2.747,1.934-4.511,2.559
				c-1.764,0.625-3.747,0.938-5.947,0.938c-2.201,0-4.183-0.312-5.947-0.938c-1.764-0.625-3.268-1.478-4.512-2.559
				c-1.243-1.081-2.201-2.344-2.871-3.789C514.008,144.906,513.672,143.357,513.672,141.703z M519.746,141.703
				c0,0.924,0.186,1.801,0.557,2.628c0.371,0.827,0.911,1.556,1.621,2.188c0.71,0.632,1.576,1.133,2.598,1.503
				c1.022,0.372,2.184,0.557,3.486,0.557c1.302,0,2.464-0.185,3.486-0.557c1.022-0.37,1.888-0.871,2.598-1.503
				c0.71-0.632,1.249-1.361,1.622-2.188c0.37-0.827,0.556-1.703,0.556-2.628c0-0.924-0.186-1.803-0.556-2.637
				c-0.372-0.833-0.911-1.565-1.622-2.197c-0.71-0.632-1.576-1.133-2.598-1.505c-1.022-0.37-2.184-0.556-3.486-0.556
				c-1.302,0-2.464,0.186-3.486,0.556c-1.022,0.372-1.888,0.874-2.598,1.505c-0.71,0.632-1.25,1.363-1.621,2.197
				C519.932,139.9,519.746,140.779,519.746,141.703z"/>
			<path fill="#005D97" d="M550.066,120.824h5.781v11.523c0.508-0.352,1.107-0.684,1.797-0.996c0.69-0.312,1.432-0.586,2.227-0.82
				c0.794-0.234,1.615-0.419,2.461-0.557c0.846-0.135,1.693-0.204,2.539-0.204c1.953,0,3.746,0.286,5.382,0.859
				c1.633,0.573,3.036,1.38,4.208,2.422c1.172,1.042,2.086,2.289,2.745,3.741c0.656,1.452,0.986,3.056,0.986,4.814
				c0,1.836-0.345,3.493-1.035,4.97c-0.69,1.479-1.645,2.742-2.862,3.789c-1.217,1.049-2.663,1.857-4.336,2.422
				c-1.673,0.568-3.486,0.85-5.439,0.85c-0.833,0-1.658-0.052-2.47-0.156c-0.815-0.104-1.596-0.247-2.344-0.43
				c-0.75-0.182-1.453-0.4-2.109-0.655c-0.659-0.253-1.241-0.53-1.749-0.829v1.66h-5.781V120.824z M555.847,145.98
				c0.586,0.469,1.204,0.866,1.855,1.191c0.651,0.326,1.315,0.592,1.992,0.801c0.677,0.208,1.361,0.361,2.051,0.46
				c0.69,0.096,1.361,0.146,2.012,0.146c1.328,0,2.51-0.178,3.544-0.536c1.036-0.358,1.908-0.85,2.617-1.475
				c0.71-0.625,1.254-1.361,1.631-2.207c0.378-0.846,0.566-1.764,0.566-2.754c0-0.924-0.185-1.797-0.557-2.617
				c-0.37-0.82-0.905-1.539-1.602-2.158c-0.697-0.618-1.536-1.107-2.518-1.466c-0.984-0.357-2.087-0.536-3.311-0.536
				c-0.781,0-1.562,0.076-2.344,0.224c-0.781,0.151-1.533,0.362-2.256,0.635c-0.721,0.273-1.4,0.605-2.031,0.996
				c-0.632,0.391-1.181,0.827-1.65,1.309V145.98z"/>
			<path fill="#005D97" d="M584.847,141.625c0-1.562,0.319-3.057,0.957-4.482c0.638-1.427,1.556-2.686,2.754-3.78
				c1.198-1.094,2.665-1.966,4.405-2.617c1.737-0.651,3.714-0.977,5.927-0.977c2.201,0,4.182,0.329,5.948,0.986
				c1.763,0.659,3.26,1.56,4.492,2.706c1.229,1.146,2.173,2.493,2.831,4.043c0.658,1.549,0.987,3.21,0.987,4.98
				c0,0.221-0.004,0.458-0.01,0.714c-0.007,0.253-0.022,0.484-0.048,0.693h-21.797c0.247,0.69,0.647,1.322,1.202,1.895
				c0.552,0.573,1.246,1.068,2.079,1.484c0.833,0.417,1.797,0.74,2.891,0.967c1.094,0.228,2.305,0.341,3.633,0.341
				s2.65-0.139,3.965-0.419c1.315-0.28,2.572-0.635,3.77-1.065l1.953,4.414c-0.755,0.352-1.521,0.661-2.296,0.927
				c-0.775,0.268-1.581,0.49-2.422,0.664c-0.839,0.177-1.719,0.31-2.635,0.401c-0.919,0.091-1.885,0.137-2.901,0.137
				c-2.591,0-4.863-0.312-6.816-0.938s-3.587-1.478-4.902-2.559c-1.315-1.081-2.305-2.35-2.969-3.809
				S584.847,143.305,584.847,141.625z M607.015,139.379c-0.208-0.638-0.531-1.233-0.966-1.788c-0.438-0.552-0.98-1.034-1.632-1.445
				c-0.651-0.409-1.406-0.732-2.266-0.966s-1.803-0.352-2.832-0.352c-1.094,0-2.09,0.124-2.988,0.371
				c-0.898,0.247-1.686,0.579-2.363,0.996c-0.677,0.417-1.24,0.898-1.69,1.445c-0.448,0.547-0.777,1.126-0.986,1.738H607.015z"/>
		</g>
	</g>
	<g>
		<defs>
			<circle id="SVGID_38_" cx="138.655" cy="142.018" r="34.016"/>
		</defs>
		<clipPath id="SVGID_2_">
			<use xlink:href="#SVGID_38_"  overflow="visible"/>
		</clipPath>
		<g clip-path="url(#SVGID_2_)">
			<g>
				<path fill="#FFF6E9" d="M120.797,129.685c-0.001-0.02-0.018-0.036-0.038-0.036c-0.502,0-0.726-0.052-0.784-0.076l0,0
					c-0.048-0.02-0.093-0.046-0.133-0.077c-0.025-0.018-0.048-0.038-0.069-0.06c-0.022-0.022-0.042-0.045-0.06-0.069
					c-0.031-0.041-0.056-0.086-0.077-0.133l0,0c-0.024-0.058-0.076-0.282-0.076-0.784c0-0.02-0.016-0.037-0.036-0.038l-0.002,0
					h-0.001h0l-0.003,0c-0.02,0.001-0.036,0.018-0.036,0.038c0,0.502-0.052,0.726-0.076,0.784l0,0
					c-0.02,0.048-0.046,0.092-0.077,0.133c-0.018,0.025-0.038,0.048-0.06,0.069c-0.022,0.022-0.045,0.042-0.069,0.06
					c-0.041,0.031-0.086,0.056-0.133,0.077l0,0c-0.058,0.024-0.282,0.076-0.784,0.076c-0.02,0-0.037,0.016-0.038,0.036
					c0,0.001,0,0.002,0,0.002v0.001l0,0c0,0.001,0,0.002,0,0.002c0.002,0.021,0.018,0.037,0.038,0.037
					c0.502,0,0.726,0.052,0.784,0.076l0,0c0.048,0.02,0.092,0.046,0.133,0.077c0.025,0.018,0.048,0.038,0.069,0.06
					c0.022,0.022,0.042,0.045,0.06,0.069c0.031,0.041,0.056,0.086,0.077,0.133l0,0c0.024,0.058,0.076,0.282,0.076,0.784
					c0,0.02,0.016,0.037,0.036,0.038l0.003,0h0l0,0l0.003,0c0.02-0.001,0.036-0.018,0.036-0.038c0-0.502,0.052-0.726,0.076-0.784
					l0,0c0.02-0.048,0.046-0.092,0.077-0.133c0.018-0.025,0.038-0.048,0.06-0.069c0.022-0.022,0.045-0.042,0.069-0.06
					c0.041-0.031,0.086-0.056,0.133-0.077l0,0c0.058-0.024,0.282-0.076,0.784-0.076c0.02,0,0.037-0.016,0.038-0.036
					c0,0,0-0.002,0-0.003l0,0v0C120.797,129.687,120.797,129.686,120.797,129.685z"/>
				<path fill="#FFF6E9" d="M118.246,140.74c-0.001-0.02-0.018-0.036-0.038-0.036c-0.502,0-0.726-0.052-0.784-0.076l0,0
					c-0.048-0.02-0.093-0.046-0.133-0.077c-0.025-0.018-0.048-0.038-0.069-0.06s-0.042-0.045-0.06-0.069
					c-0.031-0.041-0.056-0.086-0.077-0.133l0,0c-0.024-0.058-0.076-0.282-0.076-0.784c0-0.02-0.016-0.037-0.036-0.038l-0.002,0
					h-0.001h0l-0.003,0c-0.02,0.001-0.036,0.018-0.036,0.038c0,0.502-0.052,0.726-0.076,0.784l0,0
					c-0.02,0.048-0.046,0.092-0.077,0.133c-0.018,0.025-0.038,0.048-0.06,0.069s-0.045,0.042-0.069,0.06
					c-0.041,0.031-0.086,0.056-0.133,0.077l0,0c-0.058,0.024-0.282,0.076-0.784,0.076c-0.02,0-0.037,0.016-0.038,0.036l0,0.002
					v0.001l0,0l0,0.002c0.002,0.021,0.018,0.037,0.038,0.037c0.502,0,0.726,0.052,0.784,0.076l0,0
					c0.048,0.02,0.092,0.046,0.133,0.077c0.025,0.018,0.048,0.038,0.069,0.06c0.022,0.022,0.042,0.045,0.06,0.069
					c0.031,0.041,0.056,0.086,0.077,0.133l0,0c0.024,0.058,0.076,0.282,0.076,0.784c0,0.02,0.016,0.037,0.036,0.038l0.003,0h0l0,0
					l0.003,0c0.02-0.001,0.036-0.018,0.036-0.038c0-0.502,0.052-0.726,0.076-0.784l0,0c0.02-0.048,0.046-0.092,0.077-0.133
					c0.018-0.025,0.038-0.048,0.06-0.069c0.022-0.022,0.045-0.042,0.069-0.06c0.041-0.031,0.086-0.056,0.133-0.077l0,0
					c0.058-0.024,0.282-0.076,0.784-0.076c0.02,0,0.037-0.016,0.038-0.036l0-0.003l0,0v0L118.246,140.74z"/>
				<path fill="#FFF6E9" d="M136.529,145.417c-0.001-0.02-0.018-0.036-0.038-0.036c-0.502,0-0.726-0.052-0.784-0.076l0,0
					c-0.048-0.02-0.093-0.046-0.133-0.077c-0.025-0.018-0.048-0.038-0.069-0.06s-0.042-0.045-0.06-0.069
					c-0.031-0.041-0.056-0.086-0.077-0.133l0,0c-0.024-0.058-0.076-0.282-0.076-0.784c0-0.02-0.016-0.037-0.036-0.038l-0.002,0
					h-0.001l0,0l-0.003,0c-0.02,0.001-0.036,0.018-0.036,0.038c0,0.502-0.052,0.726-0.076,0.784l0,0
					c-0.02,0.048-0.046,0.092-0.077,0.133c-0.018,0.025-0.038,0.048-0.06,0.069s-0.045,0.042-0.069,0.06
					c-0.041,0.031-0.086,0.056-0.133,0.077l0,0c-0.058,0.024-0.282,0.076-0.784,0.076c-0.02,0-0.037,0.016-0.038,0.036l0,0.002
					v0.001v0c0,0.001,0,0.002,0,0.002c0.002,0.021,0.018,0.037,0.038,0.037c0.502,0,0.726,0.052,0.784,0.076l0,0
					c0.048,0.02,0.092,0.046,0.133,0.077c0.025,0.018,0.048,0.038,0.069,0.06s0.042,0.045,0.06,0.069
					c0.031,0.041,0.056,0.086,0.077,0.133l0,0c0.024,0.058,0.076,0.282,0.076,0.784c0,0.02,0.016,0.037,0.036,0.038l0.003,0l0,0l0,0
					l0.003,0c0.02-0.001,0.036-0.018,0.036-0.038c0-0.502,0.052-0.726,0.076-0.784l0,0c0.02-0.048,0.046-0.092,0.077-0.133
					c0.018-0.025,0.038-0.048,0.06-0.069s0.045-0.042,0.069-0.06c0.041-0.031,0.086-0.056,0.133-0.077l0,0
					c0.058-0.024,0.282-0.076,0.784-0.076c0.02,0,0.037-0.016,0.038-0.036c0,0,0-0.002,0-0.003v0l0,0L136.529,145.417z"/>
				<path fill="#FFF6E9" d="M153.112,159.023c-0.001-0.02-0.018-0.036-0.038-0.036c-0.502,0-0.726-0.052-0.784-0.076l0,0
					c-0.048-0.02-0.092-0.046-0.133-0.077c-0.025-0.018-0.048-0.038-0.069-0.06s-0.042-0.045-0.06-0.069
					c-0.031-0.041-0.056-0.086-0.077-0.133l0,0c-0.024-0.058-0.076-0.282-0.076-0.784c0-0.02-0.016-0.037-0.036-0.038l-0.002,0
					h-0.001l0,0l-0.002,0c-0.021,0.002-0.037,0.018-0.037,0.038c0,0.502-0.052,0.726-0.076,0.784l0,0
					c-0.02,0.048-0.046,0.092-0.077,0.133c-0.018,0.025-0.038,0.048-0.06,0.069c-0.022,0.022-0.045,0.042-0.069,0.06
					c-0.041,0.031-0.086,0.056-0.133,0.077l0,0c-0.058,0.024-0.282,0.076-0.784,0.076c-0.02,0-0.037,0.016-0.038,0.036l0,0.002
					v0.001l0,0l0,0.002c0.002,0.021,0.018,0.037,0.038,0.037c0.502,0,0.726,0.052,0.784,0.076l0,0
					c0.048,0.02,0.092,0.046,0.133,0.077c0.025,0.018,0.048,0.038,0.069,0.06c0.022,0.022,0.042,0.045,0.06,0.069
					c0.031,0.041,0.056,0.086,0.077,0.133l0,0c0.024,0.058,0.076,0.282,0.076,0.784c0,0.02,0.016,0.037,0.036,0.038l0.003,0l0,0l0,0
					l0.003,0c0.02-0.001,0.036-0.018,0.036-0.038c0-0.502,0.052-0.726,0.076-0.784l0,0c0.02-0.048,0.046-0.092,0.077-0.133
					c0.018-0.025,0.038-0.048,0.06-0.069s0.045-0.042,0.069-0.06c0.041-0.031,0.086-0.056,0.133-0.077l0,0
					c0.058-0.024,0.282-0.076,0.784-0.076c0.02,0,0.037-0.016,0.038-0.036l0-0.003l0,0l0,0L153.112,159.023z"/>
				<path fill="#FFF6E9" d="M152.262,147.543c-0.001-0.02-0.018-0.036-0.038-0.036c-0.502,0-0.726-0.052-0.784-0.076l0,0
					c-0.048-0.02-0.092-0.046-0.133-0.077c-0.025-0.018-0.048-0.038-0.069-0.06c-0.022-0.022-0.042-0.045-0.06-0.069
					c-0.031-0.041-0.056-0.086-0.077-0.133l0,0c-0.024-0.058-0.076-0.282-0.076-0.784c0-0.02-0.016-0.037-0.036-0.038l-0.002,0
					h-0.001l0,0l-0.002,0c-0.021,0.002-0.037,0.018-0.037,0.038c0,0.502-0.052,0.726-0.076,0.784l0,0
					c-0.02,0.048-0.046,0.092-0.077,0.133c-0.018,0.025-0.038,0.048-0.06,0.069s-0.045,0.042-0.069,0.06
					c-0.041,0.031-0.086,0.056-0.133,0.077l0,0c-0.058,0.024-0.282,0.076-0.784,0.076c-0.02,0-0.037,0.016-0.038,0.036l0,0.002
					v0.001l0,0c0,0.001,0,0.002,0,0.002c0.002,0.021,0.018,0.037,0.038,0.037c0.502,0,0.726,0.052,0.784,0.076l0,0
					c0.048,0.02,0.092,0.046,0.133,0.077c0.025,0.018,0.048,0.038,0.069,0.06s0.042,0.045,0.06,0.069
					c0.031,0.041,0.056,0.086,0.077,0.133l0,0c0.024,0.058,0.076,0.282,0.076,0.784c0,0.02,0.016,0.037,0.036,0.038l0.003,0l0,0l0,0
					l0.003,0c0.02-0.001,0.036-0.018,0.036-0.038c0-0.502,0.052-0.726,0.076-0.784l0,0c0.02-0.048,0.046-0.092,0.077-0.133
					c0.018-0.025,0.038-0.048,0.06-0.069c0.022-0.022,0.045-0.042,0.069-0.06c0.041-0.031,0.086-0.056,0.133-0.077l0,0
					c0.058-0.024,0.282-0.076,0.784-0.076c0.02,0,0.037-0.016,0.038-0.036c0,0,0-0.002,0-0.003l0,0l0,0L152.262,147.543z"/>
				<path fill="#FFF6E9" d="M163.742,149.244c-0.001-0.02-0.018-0.036-0.038-0.036c-0.502,0-0.726-0.052-0.784-0.076l0,0
					c-0.048-0.02-0.092-0.046-0.133-0.077c-0.025-0.018-0.048-0.038-0.069-0.06c-0.022-0.022-0.042-0.045-0.06-0.069
					c-0.031-0.041-0.056-0.086-0.077-0.133l0,0c-0.024-0.058-0.076-0.282-0.076-0.784c0-0.02-0.016-0.037-0.036-0.038l-0.002,0
					h-0.001h0l-0.002,0c-0.021,0.002-0.037,0.018-0.037,0.038c0,0.502-0.052,0.726-0.076,0.784l0,0
					c-0.02,0.048-0.046,0.092-0.077,0.133c-0.018,0.025-0.038,0.048-0.06,0.069s-0.045,0.042-0.069,0.06
					c-0.041,0.031-0.086,0.056-0.133,0.077l0,0c-0.058,0.024-0.282,0.076-0.784,0.076c-0.02,0-0.037,0.016-0.038,0.036l0,0.002
					v0.001l0,0l0,0.002c0.002,0.021,0.018,0.037,0.038,0.037c0.502,0,0.726,0.052,0.784,0.076l0,0
					c0.048,0.02,0.092,0.046,0.133,0.077c0.025,0.018,0.048,0.038,0.069,0.06c0.022,0.022,0.042,0.045,0.06,0.069
					c0.031,0.041,0.056,0.086,0.077,0.133l0,0c0.024,0.058,0.076,0.282,0.076,0.784c0,0.02,0.016,0.037,0.036,0.038l0.003,0h0l0,0
					l0.003,0c0.02-0.001,0.036-0.018,0.036-0.038c0-0.502,0.052-0.726,0.076-0.784l0,0c0.02-0.048,0.046-0.092,0.077-0.133
					c0.018-0.025,0.038-0.048,0.06-0.069c0.022-0.022,0.045-0.042,0.069-0.06c0.041-0.031,0.086-0.056,0.133-0.077l0,0
					c0.058-0.024,0.282-0.076,0.784-0.076c0.02,0,0.037-0.016,0.038-0.036l0-0.003l0,0v0L163.742,149.244z"/>
				<circle fill="#FFF6E9" cx="159.49" cy="145.42" r="0.425"/>
				<circle fill="#FFF6E9" cx="145.884" cy="155.199" r="0.425"/>
				<circle fill="#FFF6E9" cx="142.057" cy="145.42" r="0.425"/>
				<circle fill="#FFF6E9" cx="130.577" cy="133.939" r="0.425"/>
			</g>
			<g>
				<path fill="#FFF6E9" d="M146.84,126.797c-1.474,0-2.132-0.151-2.301-0.222l-0.001,0c-0.14-0.059-0.272-0.135-0.392-0.225
					c-0.072-0.054-0.14-0.113-0.204-0.176c-0.064-0.064-0.122-0.132-0.176-0.204c-0.09-0.12-0.166-0.251-0.225-0.392l0-0.001
					c-0.071-0.169-0.222-0.827-0.222-2.301c0-0.085-0.069-0.153-0.153-0.153c-0.085,0-0.153,0.069-0.153,0.153
					c0,1.474-0.151,2.132-0.222,2.301l0,0.001c-0.059,0.14-0.135,0.272-0.225,0.392c-0.054,0.072-0.113,0.14-0.176,0.204
					c-0.064,0.064-0.132,0.123-0.204,0.176c-0.12,0.09-0.251,0.166-0.391,0.225l-0.001,0c-0.169,0.071-0.827,0.222-2.301,0.222
					c-0.085,0-0.153,0.069-0.153,0.153c0,0.085,0.069,0.153,0.153,0.153c1.474,0,2.132,0.151,2.301,0.222l0.001,0
					c0.14,0.059,0.272,0.135,0.392,0.225c0.072,0.054,0.14,0.113,0.204,0.176c0.064,0.064,0.123,0.132,0.176,0.204
					c0.09,0.12,0.166,0.251,0.225,0.391l0,0.001c0.07,0.169,0.222,0.827,0.222,2.301c0,0.085,0.069,0.153,0.153,0.153
					c0.085,0,0.153-0.069,0.153-0.153c0-1.474,0.151-2.132,0.222-2.301l0-0.001c0.059-0.14,0.135-0.272,0.225-0.392
					c0.054-0.072,0.113-0.14,0.176-0.204c0.064-0.064,0.132-0.123,0.204-0.176c0.12-0.09,0.251-0.166,0.391-0.225l0.001,0
					c0.169-0.07,0.827-0.222,2.301-0.222c0.085,0,0.153-0.069,0.153-0.153C146.994,126.866,146.925,126.797,146.84,126.797z"/>
				<g>
					<linearGradient id="SVGID_3_" gradientUnits="userSpaceOnUse" x1="137.4018" y1="179.7245" x2="137.4018" y2="153.6882">
						<stop  offset="0.3" style="stop-color:#EAF6FD;stop-opacity:0"/>
						<stop  offset="1" style="stop-color:#BAE3F9;stop-opacity:0.7"/>
					</linearGradient>
					<path fill="url(#SVGID_3_)" d="M140.991,178.791c-4.006-6.995-5.537-15.223-4.31-23.169c0.044-0.288,0.094-0.575,0.145-0.857
						c0.056-0.289-0.004-0.557-0.169-0.756c-0.171-0.206-0.433-0.32-0.739-0.32c-0.687,0-1.481,0.588-1.672,1.712
						c-0.858,5.191-0.572,10.607,0.827,15.662c0.78,2.816,1.96,5.614,3.507,8.317c0.132,0.23,0.392,0.347,0.772,0.347h0
						c0.462,0,1.447-0.227,1.635-0.55C141.058,179.053,141.059,178.91,140.991,178.791z"/>
					<linearGradient id="SVGID_8_" gradientUnits="userSpaceOnUse" x1="160.0269" y1="142.0181" x2="117.2842" y2="142.0181">
						<stop  offset="0" style="stop-color:#EAF6FD"/>
						<stop  offset="1" style="stop-color:#BAE3F9"/>
					</linearGradient>
					<path fill="url(#SVGID_8_)" d="M159.497,129.529c-0.508-0.578-1.35-0.872-2.504-0.872c-1.595,0-3.421,0.565-4.443,1.09
						c-2.79,1.434-5.413,3.353-7.797,5.703c-3.472,3.422-6.3,7.64-8.181,12.198l-0.015,0.034c-0.471,1.145-0.888,2.337-1.24,3.544
						c-1.947,0.905-3.887,1.648-5.768,2.209c-1.686,0.503-3.66,1.017-5.52,1.017c-1.816,0-3.156-0.515-3.982-1.529
						c-0.526-0.646-0.71-1.468-0.548-2.442c0.218-1.307,1.022-2.845,2.459-4.703c0.134-0.174,0.273-0.344,0.41-0.511
						c0.617-0.731,0.755-1.28,0.41-1.631c-0.137-0.14-0.312-0.214-0.506-0.214c-0.473,0-1.054,0.429-1.774,1.308
						c-0.906,1.074-1.665,2.174-2.257,3.268c-0.702,1.299-1.037,2.621-0.944,3.721c0.105,1.229,0.711,2.169,1.801,2.794
						c1.336,0.766,2.968,0.864,4.241,0.864l0.125,0c1.784-0.01,3.713-0.292,6.071-0.887c1.913-0.483,3.823-1.138,5.838-2.001
						c0.637-0.273,1.301-0.576,1.975-0.9c2.109-1.016,4.3-2.242,6.698-3.748c4.503-2.827,8.169-5.69,11.207-8.751
						c2.095-2.111,4.361-4.603,4.736-7.466C160.107,130.739,159.941,130.034,159.497,129.529z M154.709,137.189
						c-3.185,3.743-7.2,6.672-10.341,8.805c-2.256,1.532-4.362,2.817-6.418,3.915c0.378-1.126,0.819-2.247,1.315-3.342
						c1.618-3.571,3.801-6.835,6.487-9.702c0.621-0.662,1.26-1.297,1.902-1.886c0.594-0.546,5.885-5.33,8.636-5.33
						c0.685,0,1.126,0.314,1.348,0.959C158.407,132.843,156.093,135.562,154.709,137.189z"/>
					<linearGradient id="SVGID_9_" gradientUnits="userSpaceOnUse" x1="140.9076" y1="135.1423" x2="119.7952" y2="135.1423">
						<stop  offset="0" style="stop-color:#EAF6FD"/>
						<stop  offset="1" style="stop-color:#BAE3F9"/>
					</linearGradient>
					<path fill="url(#SVGID_9_)" d="M140.865,133.246c-0.128-0.273-0.52-0.411-1.165-0.411c-0.25,0-0.473,0.022-0.616,0.04
						c-1.879,0.239-3.72,1.184-5.345,2.018l-0.162,0.083c-2.224,1.141-4.516,2.575-6.81,4.265c-1.197,0.881-2.241,1.716-3.19,2.552
						c-0.346-0.002-0.653-0.04-0.938-0.119c-0.37-0.102-0.618-0.298-0.735-0.583c-0.291-0.704,0.249-1.745,0.422-2.048
						c1.513-2.65,4.372-4.612,7.171-6.394c3.354-2.135,6.449-3.531,9.462-4.265c0.005-0.001,0.495-0.136,0.501-0.373
						c0.002-0.071-0.034-0.166-0.216-0.222c-0.13-0.04-0.278-0.06-0.438-0.06c-0.298,0-0.599,0.067-0.858,0.13
						c-5.659,1.379-10.441,4.503-13.456,6.88c-1.779,1.403-3.549,2.97-4.445,4.922c-0.319,0.694-0.337,1.321-0.053,1.812
						c0.335,0.581,1.066,0.952,2.059,1.044c0.254,0.024,0.515,0.035,0.797,0.035c0.066,0,0.132-0.001,0.199-0.002
						c0.592-0.011,1.22-0.077,1.867-0.195c1.271-0.232,2.522-0.638,3.578-1.005c2.223-0.772,4.564-1.907,7.155-3.469
						c1.702-1.026,3.632-2.189,4.937-3.765C140.878,133.767,140.972,133.473,140.865,133.246z M138.71,134.003l-0.049,0.062
						c-0.518,0.681-1.248,1.218-1.955,1.737l-0.17,0.125c-2.839,2.095-6.099,3.833-9.428,5.028c-0.3,0.108-0.626,0.225-0.965,0.336
						c1.82-1.546,3.95-3.051,6.493-4.59l0.073-0.044c1.891-1.145,4.029-2.439,6.208-3.004
						C138.9,133.763,138.788,133.905,138.71,134.003z"/>
				</g>
			</g>
		</g>
	</g>
</g>
</svg>
